<svg version="1.2" xmlns="http://www.w3.org/2000/svg" viewBox="0 0 134 41" width="134" height="41"><defs><clipPath clipPathUnits="userSpaceOnUse" id="cp1"><path d="m0 0h134v40.85h-134z"/></clipPath></defs><style>tspan{white-space:pre}.a{fill:#022e71}.b{font-size: 24px;fill: #022e71;font-weight: 400;font-family: "DejaVuSans", "DejaVu Sans"}</style><g clip-path="url(#cp1)"><path class="a" d="m87.8-135.4h-8.4v0.1c1.1 0.2 1.4 0.9 1.4 4.8v5.9c0 3.6-0.3 4.5-1.4 4.8v0.1h8.4c5.4 0 8.6-2.8 8.6-7.9 0-5-3.2-7.8-8.6-7.8zm-1.5 14.9h-1.9c-0.7 0-1-0.3-1-1v-13.2h2.9c4.6 0 7.2 2.6 7.2 7.1 0 4.6-2.6 7.1-7.2 7.1z"/><path class="a" d="m72.3-146.3c1 0.4 1.3 1.3 1.2 4.6v7.4c0 0.2-0.1 0.3-0.3 0.3q-0.1 0-0.3-0.2l-4.4-6.5c-3.6-5.3-4.8-5.7-6.3-5.7h-2.7v0.1c1 0.3 1.2 1.4 1.2 3.3v7.6c0 3.2-0.2 4.1-1.2 4.6v0.1h3.4v-0.1c-0.9-0.5-1.2-1.4-1.2-4.6v-8.6c0-0.3 0.1-0.5 0.4-0.5 0.3 0 0.4 0.2 0.6 0.5 2 3.1 5.9 8.8 8.2 11.4 1.3 1.6 2.2 1.9 3 1.9h1.1c-0.4-0.6-0.5-1.1-0.5-2.8v-8.2c0-3.3 0.2-4.2 1.2-4.6v-0.1h-3.4z"/><path class="a" d="m62.1-89.3c1.1 0.2 1.4 0.9 1.4 4.8v5.9c0 3.6-0.3 4.5-1.4 4.8v0.1h5.3v-0.1c-1.1-0.3-1.4-1.2-1.4-4.8v-5.9c0-3.9 0.3-4.6 1.4-4.8v-0.1h-5.3z"/><text style="transform:matrix(1,0,0,1,36,31)" ><tspan x="0" y="0" class="b">A</tspan><tspan  y="0" class="b">D</tspan><tspan  y="0" class="b">E</tspan><tspan  y="0" class="b">N</tspan><tspan  y="0" class="b">A</tspan><tspan  y="0" class="b">
</tspan></text><text style="transform:matrix(1,0,0,1,192,82)" ></text><path class="a" d="m105.8-107.3c1.1 0.2 1.4 0.9 1.4 4.8v5.9c0 3.6-0.3 4.5-1.4 4.8v0.1h5.2v-0.1c-1-0.3-1.3-1.2-1.3-4.8v-5.9c0-3.9 0.3-4.6 1.3-4.8v-0.1h-5.2z"/><path class="a" d="m243.4-46.7l-3.9-8.5c-0.9-2-1.3-2.2-3.1-2.2h-1.7v0.1c0.6 0.3 1.1 0.8 1.1 1.6 0 0.6-0.3 1.4-0.6 2.2l-4 8.1c-0.6 1.3-1.7 3.2-2.9 3.6v0.1h3.3v-0.1c-0.1-0.1-0.3-0.3-0.3-0.7 0-0.5 0.1-0.8 0.3-1.2l0.1-0.4c0.5-1.2 1.2-1.7 2.4-1.7h4.9c1.2 0 1.7 0.4 2.3 1.4l0.6 1.3c0.5 1 1.2 1.4 2.5 1.4h2.6v-0.1c-1.2-0.4-2-1.5-3.6-4.9zm-10.4 0.1l3.7-7.7 3.7 7.7z"/><path class="a" d="m139.6-63l-2.4-2.8c-0.4-0.6-0.8-1-1.4-1.3 2.4-0.2 4.2-1.9 4.2-4.6 0-3-2.6-4.7-5.9-4.7h-8.9v0.1c1 0.2 1.3 0.9 1.3 4.8v5.9c0 3.6-0.3 4.5-1.3 4.8v0.1h5.2v-0.1c-1-0.5-1.3-1.4-1.3-3.4v-1.1q0-1.6 1.6-1.7h0.8c1 0 2 0.5 2.7 1.3q0.9 1.2 1.6 2.1c2 2.8 3 2.9 5.1 2.9h1.5v-0.1c-1.1-0.3-2.1-1.3-2.8-2.2zm-6.2-4.7h-4.3v-8h3.7c2.7 0 4.2 1.5 4.2 4 0 2.4-1.5 4-3.6 4z"/><path class="a" d="m9.3 5.8c-2.3-3.9-7.6-1.1-9.2-4.6-0.1 0-0.1 0-0.1 0 0.2 4 5.4 1.9 7.5 4.8q0 0 0 0c0.3-0.1 1-0.3 1.7-0.1q0.1 0 0.1-0.1z"/><path class="a" d="m4.2 2.7q0.1 0.1 0.2 0.1 0.1 0 0.1-0.1c-1-0.6-1.8-1.4-1.8-2.7 0 0-0.1 0-0.1 0-0.4 1.2-0.1 1.9 0.5 2.6q0 0 0 0 0.5 0.1 1.1 0.2z"/><path class="a" d="m23.2 20.1q0 0-0.1 0c-0.4-0.8-1.3-1.3-1.5-1.5q-0.1 0 0-0.1c1.4 0 2-1 2.2-1.4 0-0.1 0.1-0.1 0.1 0 0.7 1.8-0.4 2.8-0.7 3z"/><path class="a" d="m7.6 29.4c0 0 0 0 0 0.1-1.1 0.6-2.6 1.9-2.9 3.2-0.5 1.9 0.5 3.9 1 5.7 0 0.1 0.1 0.3 0 0.4-0.2 0-0.2-0.1-0.3-0.2q0-0.1-0.1-0.3c-0.7-1.4-1.7-3-2.3-4.5-0.2-0.5-0.3-0.9-0.2-1.5 0.2-1.7 1.3-3.7 1.5-5.5 0 0 0 0 0.1 0 0 0 1.2 1.8 3.2 2.6z"/><path class="a" d="m11.8 21c-0.5-0.6-0.9-1.3-1.2-2.1q-0.1-0.1 0-0.1 0-0.1 0.1-0.1c2.8 0.6 3.9 0.3 5-0.1 2.4-0.7 5.2-0.4 6.7 1.8 2 2.8 1.1 6.7 1 9.9-0.1 2.2-0.1 5.6-0.1 8.1 0 1 0 1.8 0 2.3 0 0.1-0.1 0.2-0.2 0.2-0.1 0-0.1-0.1-0.1-0.2q-0.1-0.6-0.2-1.2c-0.4-3-0.8-6.4-2.1-9.1-1-2-2.5-3.6-4.2-5-1.7-1.3-3.4-2.6-4.7-4.4z"/><path class="a" d="m14.4 29c-1-6.4-4.8-7.4-5.4-11-0.4-2.5 0.1-5.6 0.4-6.8 1.8 0 4 0 4.2-2.1q0 0 0 0-0.3-0.1-0.6-0.2-0.3-0.1-0.5-0.2 0 0 0 0c-0.5-0.2-1-0.5-1.4-0.9-0.3-0.4-0.6-0.8-1.1-1-0.7-0.3-1.6-0.4-2.4-0.1q0 0 0 0c0.1 0.7 0.1 1.2 0.1 1.4q0 0-0.1 0-0.1-0.5-0.3-0.9c-0.4-0.8-1.3-1.4-1.8-1.4q-0.1 0-0.1 0c-0.1 0.2-0.8 1.8 0.9 3.1l-0.1 0.3h-0.1c-0.8 2.3-1.6 4.5-2.2 6.8-0.7 2.3-1.1 4.9-0.4 7.3 0.7 2.3 2.4 3.8 4.3 5.1 1.6 1 3.3 1.7 4.4 3.3 1.8 2.6 2.1 5.9 2.4 9q0 0.2 0.1 0.2c0.1 0 0.1-0.2 0.1-0.2 0.1-0.9 0.4-6.6-0.4-11.7z"/></g></svg>